<svg xmlns="http://www.w3.org/2000/svg" xml:space="preserve" id="Layer_1" x="0" y="0" version="1.1" viewBox="0 0 822.3 252.3"><style>.st0{fill:#007167}.st1{fill:#00958a}.st3{fill:#9d9d9c}</style><path d="m708 238.7-.1-2.3c-1.8-36.4-9.7-68.2-24.1-97.4l-3.2-6.5-3.2 6.5c-14.4 29.1-22.3 61-24.1 97.4l-.1 2.3c8.9 1.4 18 2.2 27.4 2.2s18.6-.8 27.4-2.2" class="st0"/><path d="M587.7 105.9c13.4 17.4 33 44.6 47.5 79.5l4.3 10.4 2.5-11c5.6-24.7 14.4-47.1 26.8-68.2l1.1-1.9-1.3-1.9c-7.5-11.1-15.9-21.6-26.4-33.1-7.5-7.9-15.7-15.8-24.2-23.3l-2.5-2.2-2.4 2.4c-12.4 12.3-22.3 25.2-30.4 39.4l-1.2 2.1 1.6 1.9c1.5 2 3 4 4.6 5.9" class="st1"/><path d="m631.8 233.9-.3-1.2c-12.3-51.1-37.2-88-54.8-111.3l-3.9-5.2-2.3 6.1c-7 18.4-11.7 39.3-14.1 62.3 18.1 22.7 44.4 40.2 75.4 49.3" class="st0"/><path d="M655.4 67.4c8.5 9.3 15.9 18.1 22.3 26.9l2.9 3.9 2.9-3.9c6.5-8.8 13.7-17.5 22.3-26.8 7.2-7.5 15-15.1 23.1-22.3l3.2-2.9-3.4-2.6c-19.6-15.1-37.6-24-46.5-28l-1.5-.7-1.5.7c-9 4-26.9 13-46.5 28l-3.4 2.6 3.2 2.9c8 7.2 15.7 14.7 22.9 22.2" style="fill:#6abf4b"/><path d="M805 184.6c-2.5-23-7.2-44-14.2-62.3l-2.3-6.1-3.9 5.2c-17.6 23.3-42.4 60.1-54.8 111.3l-.3 1.2c30.9-9.1 57.3-26.6 75.5-49.3" class="st0"/><path d="M719 79.9c-10.4 11.3-19 22.1-26.4 33l-1.3 1.9 1.1 1.9c12.4 21.2 21.1 43.5 26.8 68.2l2.5 11 4.3-10.4c14.5-34.9 34-62 47.4-79.4 1.6-2 3.2-3.9 4.8-5.9l1.6-1.9-1.2-2.1c-8.1-14.2-18-27.1-30.4-39.4l-2.4-2.4-2.5 2.2c-8.6 7.5-16.7 15.3-24.3 23.3" class="st1"/><path d="M33.5 215.2v-23.1l-9.1 23.1h-3.1l-9-23.1v23.1h-3v-25.6h5.3l8.4 21.6 8.3-21.6h5.3v25.6zM54.3 215.2c-.1-.4-.1-.8-.2-1.3s-.1-.9-.1-1.3c-.8 1.1-1.6 1.8-2.6 2.3-1 .4-2.1.6-3.4.6q-1.2 0-2.4-.3c-1.2-.3-1.4-.5-2-1-.6-.4-1-1-1.4-1.6-.3-.7-.5-1.4-.5-2.4 0-1.3.3-2.4 1-3.2s1.5-1.4 2.5-1.8 2.1-.7 3.3-.8 2.3-.2 3.4-.2h.9c.3 0 .6 0 .8.1v-1.1c0-1.4-.3-2.4-.9-3.2s-1.6-1.1-3.1-1.1c-1.1 0-2 .2-2.6.7s-1 1.3-1.1 2.5h-3.1c0-1 .3-1.8.7-2.4.4-.7.9-1.2 1.5-1.6s1.3-.7 2.1-.9q1.2-.3 2.4-.3c2.3 0 4 .5 5.1 1.4 1.1 1 1.7 2.6 1.7 5v6.6c0 1.2.1 2.3.2 3.2.1 1 .3 1.6.4 2h-2.6zm-.6-9c-.4 0-.7-.1-.9-.1h-.7c-.7 0-1.5 0-2.3.1-.9.1-1.6.2-2.4.5-.7.3-1.4.7-1.9 1.2s-.7 1.2-.7 2.2q0 .75.3 1.5c.2.4.5.8.9 1.1s.8.5 1.3.6 1 .2 1.5.2q1.65 0 2.7-.6c.6-.4 1.1-1 1.5-1.6.3-.7.6-1.5.7-2.3-.1-1 0-1.9 0-2.8M74.9 215.2l-.2-2.7c-.8 1-1.6 1.8-2.4 2.3-.9.5-2 .7-3.3.7s-2.5-.3-3.5-.8-1.8-1.2-2.4-2.1-1.1-1.9-1.4-3-.5-2.3-.5-3.5.2-2.3.5-3.4.8-2.1 1.4-2.9c.6-.9 1.4-1.5 2.4-2.1 1-.5 2.1-.8 3.4-.8s2.5.3 3.4.7q1.35.75 2.4 2.4v-10.6h3.1v23.200000000000003c0 .9 0 1.8.1 2.6zm-.2-8.9c0-.8-.1-1.7-.3-2.6s-.5-1.6-.9-2.3-1-1.2-1.7-1.6-1.5-.6-2.5-.6-1.8.2-2.4.7c-.6.4-1.1 1-1.5 1.7s-.6 1.4-.8 2.3c-.2.8-.2 1.7-.2 2.5 0 .9.1 1.7.3 2.6.2.8.5 1.6.9 2.3s1 1.2 1.6 1.6c.7.4 1.5.6 2.5.6s1.8-.2 2.4-.6 1.1-1 1.5-1.6c.4-.7.7-1.4.8-2.3.2-1.1.3-1.9.3-2.7M83.4 189.6h3.5v3.2h-3.5zm.2 7.7h3.1v17.9h-3.1zM104.7 215.2v-9.9c0-.8 0-1.5-.1-2.2s-.2-1.3-.5-1.8-.7-1-1.3-1.3-1.3-.5-2.3-.5-1.8.2-2.4.6-1.1.9-1.5 1.6c-.4.6-.6 1.4-.8 2.2s-.2 1.6-.2 2.5v8.9h-3.1v-17.9h3.1l.1 2.9c.7-1 1.6-1.8 2.5-2.3s2-.8 3.3-.8c2.3 0 4 .6 4.9 1.8 1 1.2 1.4 2.9 1.4 5.1v11.1zM124.9 215.2c-.1-.4-.1-.8-.2-1.3s-.1-.9-.1-1.3c-.8 1.1-1.6 1.8-2.6 2.3-1 .4-2.1.6-3.4.6q-1.2 0-2.4-.3c-.8-.2-1.4-.5-2-1-.6-.4-1-1-1.4-1.6-.3-.7-.5-1.4-.5-2.4 0-1.3.3-2.4 1-3.2s1.5-1.4 2.5-1.8 2.1-.7 3.3-.8 2.3-.2 3.4-.2h.9c.3 0 .6 0 .8.1v-1.1c0-1.4-.3-2.4-.9-3.2s-1.6-1.1-3.1-1.1c-1.1 0-2 .2-2.6.7s-1 1.3-1.1 2.5h-3c0-1 .3-1.8.7-2.4.4-.7.9-1.2 1.5-1.6s1.3-.7 2.1-.9q1.2-.3 2.4-.3c2.3 0 4 .5 5.1 1.4 1.1 1 1.7 2.6 1.7 5v6.6c0 1.2.1 2.3.2 3.2.1 1 .3 1.6.4 2h-2.7zm-.6-9c-.4 0-.7-.1-.9-.1h-.7c-.7 0-1.4 0-2.3.1-.8.1-1.6.2-2.4.5-.7.3-1.4.7-1.9 1.2s-.7 1.2-.7 2.2q0 .75.3 1.5c.2.4.5.8.9 1.1s.8.5 1.3.6 1 .2 1.5.2q1.65 0 2.7-.6c.6-.4 1.1-1 1.5-1.6.3-.7.6-1.5.7-2.3-.1-1 0-1.9 0-2.8M145.2 215.2v-9.9c0-.8 0-1.5-.1-2.2s-.2-1.3-.5-1.9c-.3-.5-.7-1-1.3-1.3s-1.3-.5-2.3-.5c-.9 0-1.7.2-2.3.5-.6.4-1.1.8-1.5 1.4s-.7 1.3-.8 2q-.3 1.2-.3 2.4v9.5H133v-25.6h3.1v10.5c.7-1 1.5-1.8 2.5-2.3.9-.5 2-.8 3.3-.8 1.2 0 2.2.2 3 .5s1.5.8 2 1.4.9 1.3 1.1 2.2.3 1.8.3 3v11.1zM179.6 215.2c-.4-1-.7-2.1-.7-3.1-.1-1.1-.2-2.1-.3-3.2-.1-.9-.2-1.8-.3-2.5s-.3-1.3-.6-1.7c-.3-.5-.8-.8-1.4-1s-1.5-.3-2.5-.3h-5.5v11.9H165v-25.6h9.1c1 0 2.1.1 3.1.3s1.9.5 2.8 1c.8.5 1.5 1.1 2 1.9s.8 1.8.8 3.1c0 1.7-.5 3-1.4 4s-2.2 1.7-3.7 2.1c.8.2 1.5.4 2 .7s1 .7 1.3 1.1.6 1 .7 1.5c.2.6.3 1.2.3 1.9.1.8.2 1.7.2 2.6s.2 1.8.4 2.8c.1.5.2.9.3 1.3s.3.8.5 1.1h-3.8zm-.4-18.9c0-.9-.2-1.6-.5-2.2-.3-.5-.8-1-1.4-1.3s-1.2-.5-1.9-.6-1.4-.1-2.2-.1h-5.1v8.7h4.2c.8 0 1.6 0 2.4-.1s1.6-.3 2.2-.6c.7-.3 1.2-.8 1.6-1.4.5-.6.7-1.4.7-2.4M190 206.8v.4q0 1.2.3 2.4c.2.8.6 1.4 1 2s1 1.1 1.7 1.4 1.5.5 2.4.5c1.3 0 2.3-.4 3.1-1.1q1.2-1.05 1.5-3h3c-.4 2.1-1.2 3.7-2.7 4.7-1.4 1-3.1 1.5-5.2 1.5-1.4 0-2.6-.2-3.6-.7-1-.4-1.9-1.1-2.6-1.9s-1.2-1.8-1.5-2.9-.5-2.3-.5-3.6.2-2.6.5-3.8.9-2.2 1.6-3c.7-.9 1.6-1.5 2.6-2 1.1-.5 2.3-.7 3.8-.7s2.7.3 3.7.8 1.8 1.3 2.4 2.2 1 1.9 1.2 3.1.4 2.4.4 3.7zm10-2.1q0-1.05-.3-2.1t-.9-1.8c-.6-.75-.9-.9-1.5-1.3-.6-.3-1.3-.5-2.1-.5s-1.5.2-2.2.5c-.6.3-1.1.7-1.6 1.3-.4.5-.8 1.1-1 1.8s-.4 1.4-.5 2.1zM223.3 197.3c-.1 1-.1 2.1-.1 3.1v9.7c0 1.7-.1 3.3-.2 4.8s-.4 2.8-1 3.9c-.5 1.1-1.4 2-2.5 2.6s-2.7.9-4.7.9c-.9 0-1.8-.1-2.7-.2-.9-.2-1.7-.4-2.4-.9-.7-.4-1.3-1-1.7-1.7s-.7-1.6-.7-2.7h3c0 .6.1 1.2.4 1.6s.6.8 1 1c.4.3.9.4 1.4.6.5.1 1.1.2 1.6.2.9 0 1.7-.1 2.4-.4.6-.3 1.2-.6 1.6-1.1s.7-1 .9-1.7.4-1.4.4-2.2c0-.5.1-1 .1-1.5v-1.5c-1.4 2.1-3.3 3.2-5.9 3.2-1.3 0-2.5-.2-3.5-.7s-1.8-1.1-2.4-1.9c-.7-.8-1.1-1.8-1.5-2.9-.3-1.1-.5-2.3-.5-3.5s.2-2.3.5-3.4.8-2.1 1.5-2.9c.6-.8 1.5-1.5 2.4-2 1-.5 2.1-.7 3.4-.7 2.7 0 4.7 1.1 6.1 3.4v-3zm-3.2 8.5q0-1.2-.3-2.4c-.2-.8-.5-1.5-.9-2.2-.4-.6-1-1.2-1.6-1.6-.7-.4-1.4-.6-2.3-.6-1 0-1.8.2-2.5.6s-1.2 1-1.6 1.6c-.4.7-.7 1.4-.9 2.2s-.3 1.7-.3 2.5.1 1.7.3 2.5.5 1.5.9 2.2c.4.6 1 1.2 1.6 1.6.7.4 1.5.6 2.5.6s1.8-.2 2.5-.6 1.2-1 1.6-1.6c.4-.7.7-1.4.9-2.3 0-.8.1-1.6.1-2.5M228.8 189.6h3.5v3.2h-3.5zm.2 7.7h3.1v17.9H229zM254.3 206.2c0 1.3-.2 2.6-.6 3.7s-1 2.1-1.7 3c-.8.9-1.7 1.5-2.8 2s-2.3.7-3.7.7-2.7-.2-3.8-.7-2-1.1-2.8-2c-.7-.8-1.3-1.8-1.7-3s-.6-2.4-.6-3.8.2-2.6.6-3.7 1-2.1 1.7-2.9c.8-.8 1.7-1.5 2.8-1.9 1.1-.5 2.4-.7 3.8-.7s2.7.2 3.8.7c1.1.4 2 1.1 2.8 1.9.7.8 1.3 1.8 1.7 2.9.3 1.1.5 2.4.5 3.8m-3.3 0c0-.9-.1-1.7-.3-2.6-.2-.8-.5-1.6-1-2.3-.4-.7-1-1.2-1.7-1.6s-1.6-.6-2.6-.6-1.8.2-2.6.6c-.7.4-1.3.9-1.7 1.6s-.8 1.4-1 2.3c-.2.8-.3 1.7-.3 2.6s.1 1.7.3 2.6.5 1.6 1 2.3c.4.7 1 1.3 1.7 1.7s1.6.7 2.6.7 1.8-.2 2.5-.7c.7-.4 1.3-1 1.7-1.7s.8-1.5 1-2.4c.3-.8.4-1.7.4-2.5M270.9 215.2v-9.9c0-.8 0-1.5-.1-2.2s-.2-1.3-.5-1.8-.7-1-1.3-1.3-1.3-.5-2.3-.5-1.8.2-2.4.6-1.1.9-1.5 1.6c-.4.6-.6 1.4-.8 2.2s-.2 1.6-.2 2.5v8.9h-3.1v-17.9h3.1l.1 2.9c.7-1 1.6-1.8 2.5-2.3s2.1-.8 3.4-.8c2.3 0 4 .6 4.9 1.8 1 1.2 1.4 2.9 1.4 5.1v11.1zM291.1 215.2c-.1-.4-.1-.8-.2-1.3s-.1-.9-.1-1.3c-.8 1.1-1.6 1.8-2.6 2.3-1 .4-2.1.6-3.4.6q-1.2 0-2.4-.3c-1.2-.3-1.4-.5-2-1-.6-.4-1-1-1.4-1.6-.3-.7-.5-1.4-.5-2.4 0-1.3.3-2.4 1-3.2s1.5-1.4 2.5-1.8 2.1-.7 3.3-.8 2.4-.2 3.4-.2h.9c.3 0 .6 0 .8.1v-1.1c0-1.4-.3-2.4-.9-3.2s-1.6-1.1-3.1-1.1c-1.1 0-2 .2-2.6.7s-1 1.3-1.1 2.5h-3c0-1 .3-1.8.7-2.4.4-.7.9-1.2 1.5-1.6s1.3-.7 2.1-.9q1.2-.3 2.4-.3c2.3 0 4 .5 5.1 1.4 1.1 1 1.7 2.6 1.7 5v6.6c0 1.2.1 2.3.2 3.2.1 1 .3 1.6.4 2h-2.7zm-.6-9c-.4 0-.7-.1-.9-.1h-.7c-.7 0-1.4 0-2.3.1-.8.1-1.6.2-2.4.5-.7.3-1.4.7-1.9 1.2s-.7 1.2-.7 2.2q0 .75.3 1.5c.2.4.5.8.9 1.1s.8.5 1.3.6 1 .2 1.5.2q1.65 0 2.7-.6c.6-.4 1.1-1 1.5-1.6.3-.7.6-1.5.7-2.3-.1-1 0-1.9 0-2.8M299.2 189.6h3.1v25.6h-3.1zM343.2 215.2v-23.1l-9.1 23.1h-3l-9.1-23.1v23.1h-3v-25.6h5.3l8.5 21.6 8.2-21.6h5.3v25.6zM364.9 215.2l-.1-2.8c-.8 1-1.6 1.8-2.5 2.3s-2 .7-3.3.7c-1.2 0-2.2-.2-3-.5s-1.5-.8-2-1.4-.9-1.3-1.1-2.2-.3-1.8-.3-3v-11.1h3.1v9.9c0 .8 0 1.5.1 2.2s.3 1.3.5 1.9c.3.5.7 1 1.3 1.3s1.3.5 2.3.5c.9 0 1.7-.2 2.4-.5.6-.3 1.1-.8 1.5-1.4s.7-1.3.8-2q.3-1.05.3-2.4v-9.5h3.1v13.299999999999999c0 1.5 0 3.1.1 4.6h-3.2zM385.9 215.2v-9.9c0-.8 0-1.5-.1-2.2s-.2-1.3-.5-1.8-.7-1-1.3-1.3-1.3-.5-2.3-.5-1.8.2-2.4.6-1.1.9-1.5 1.6c-.4.6-.6 1.4-.8 2.2s-.2 1.6-.2 2.5v8.9h-3.1v-17.9h3.1l.1 2.9c.7-1 1.6-1.8 2.5-2.3s2-.8 3.3-.8c2.3 0 4 .6 4.9 1.8 1 1.2 1.4 2.9 1.4 5.1v11.1zM394.5 189.6h3.5v3.2h-3.5zm.2 7.7h3.1v17.9h-3.1zM417.8 212c-.4.8-1 1.5-1.6 2-.7.5-1.5.9-2.3 1.2-.9.3-1.8.4-2.9.4-1.4 0-2.7-.2-3.7-.7-1.1-.4-2-1.1-2.7-1.9s-1.3-1.8-1.7-2.9-.6-2.4-.6-3.7c0-1.4.2-2.6.6-3.8s.9-2.2 1.7-3.1c.7-.9 1.7-1.5 2.8-2s2.4-.7 3.8-.7c2 0 3.7.5 5 1.5s2.1 2.6 2.3 4.7h-3q-.15-1.95-1.2-3c-1.05-1.05-1.7-1.1-3-1.1-1.1 0-1.9.2-2.7.6-.7.4-1.3 1-1.7 1.7s-.7 1.5-.9 2.3q-.3 1.35-.3 2.7c0 1.35.1 1.7.3 2.6s.5 1.6.9 2.3 1 1.2 1.7 1.7c.7.4 1.5.6 2.5.6 1.3 0 2.4-.4 3.2-1.2s1.2-1.8 1.3-3.1h3c-.1 1.2-.4 2.1-.8 2.9M422.4 189.6h3.5v3.2h-3.5zm.2 7.7h3.1v17.9h-3.1zM448.3 206c0 1.2-.2 2.4-.5 3.5s-.8 2.2-1.5 3-1.5 1.6-2.5 2.1-2.2.8-3.5.8-2.4-.2-3.2-.7c-.9-.5-1.7-1.3-2.4-2.3v9.4h-3.1v-22c0-.9 0-1.7-.1-2.6h3.1l.1 3.1c.7-1.2 1.5-2 2.5-2.6 1-.5 2.2-.8 3.6-.8 1.3 0 2.4.3 3.4.7 1 .5 1.7 1.2 2.4 2 .6.8 1.1 1.8 1.4 2.9.1 1.2.3 2.3.3 3.5m-3.3.2c0-.8-.1-1.6-.2-2.4-.2-.8-.4-1.6-.8-2.3s-.9-1.2-1.5-1.7c-.6-.4-1.4-.7-2.4-.7s-1.8.2-2.5.6-1.2 1-1.6 1.6c-.4.7-.7 1.4-.9 2.3-.2.8-.3 1.7-.3 2.5s.1 1.6.2 2.5c.2.8.4 1.6.8 2.3s.9 1.2 1.5 1.6q.9.6 2.4.6c1.5 0 1.9-.2 2.6-.6s1.2-1 1.6-1.6c.4-.7.7-1.4.9-2.3.1-.7.2-1.6.2-2.4M464.1 215.2c-.1-.4-.1-.8-.2-1.3s-.1-.9-.1-1.3c-.8 1.1-1.6 1.8-2.6 2.3-1 .4-2.1.6-3.4.6q-1.2 0-2.4-.3c-1.2-.3-1.4-.5-2-1-.6-.4-1-1-1.4-1.6-.3-.7-.5-1.4-.5-2.4 0-1.3.3-2.4 1-3.2s1.5-1.4 2.5-1.8 2.1-.7 3.3-.8 2.3-.2 3.4-.2h.9c.3 0 .6 0 .8.1v-1.1c0-1.4-.3-2.4-.9-3.2s-1.6-1.1-3.1-1.1c-1.1 0-2 .2-2.6.7s-1 1.3-1.1 2.5h-3c0-1 .3-1.8.7-2.4.4-.7.9-1.2 1.5-1.6s1.3-.7 2.1-.9q1.2-.3 2.4-.3c2.3 0 4 .5 5.1 1.4 1.1 1 1.7 2.6 1.7 5v6.6c0 1.2.1 2.3.2 3.2.1 1 .3 1.6.4 2h-2.7zm-.7-9c-.4 0-.7-.1-.9-.1h-.7c-.7 0-1.5 0-2.3.1-.9.1-1.6.2-2.4.5-.7.3-1.4.7-1.9 1.2s-.7 1.2-.7 2.2q0 .75.3 1.5c.2.4.5.8.9 1.1s.8.5 1.3.6 1 .2 1.5.2q1.65 0 2.7-.6c.6-.4 1.1-1 1.5-1.6.3-.7.6-1.5.7-2.3zM472.2 189.6h3.1v25.6h-3.1zM481 189.6h3.5v3.2H481zm.1 7.7h3.1v17.9h-3.1zM495.6 215.4c-1.4 0-2.5-.3-3.3-1-.7-.6-1.1-1.7-1.1-3.2v-11.8h-3.5v-2.2h3.5v-3.5l3.1-1.3v4.8h4v2.2h-4V210c0 .5 0 1 .1 1.4 0 .4.2.7.3.9.2.2.4.4.7.5s.7.2 1.3.2c.3 0 .6 0 .8-.1.3 0 .5-.1.9-.1v2.4c-1 .1-1.9.2-2.8.2M507.6 221.9h-3.1l2.9-6.7-7.6-17.9h3.6l5.6 14.6 5.6-14.6h3.2z" class="st3"/><path d="M22.8 122.1c.7-.7 1.1-1.6 1.1-2.6s-.4-1.9-1.1-2.7c-.7-.7-1.6-1.1-2.7-1.1-1 0-1.9.4-2.6 1.1-.7.8-1.1 1.6-1.1 2.7 0 1 .4 1.9 1.1 2.6.7.8 1.6 1.1 2.6 1.1 1.1.1 2-.3 2.7-1.1M12.6 133.3q-3.3 3.6-3.3 10.5v10.5h28.4v-6.4H16.2v-3.5c0-2.8.6-4.9 1.9-6.3s3.3-2.1 6.1-2.1h6.5v8.9h6.9v-15.3H22.8c-4.6 0-8 1.2-10.2 3.7M29.8 123.3c1 0 1.9-.4 2.6-1.1.8-.8 1.1-1.6 1.1-2.6s-.4-1.9-1.1-2.7c-.7-.7-1.6-1.1-2.6-1.1-.7 0-1.3.2-1.9.5-.6.4-1.1.8-1.4 1.4-.4.6-.5 1.2-.5 1.9s.2 1.3.5 1.9c.4.6.8 1.1 1.4 1.4.6.2 1.3.4 1.9.4M51.3 154.1c0 2.8-.6 4.9-1.9 6.4s-3.2 2.3-5.7 2.3h-2.1v6.5h2.6c4.7 0 8.2-1.3 10.5-4 2.3-2.6 3.5-6.3 3.5-11v-24.7h-6.9zM129.9 123.3c1 0 1.9-.4 2.7-1.1.7-.7 1.1-1.6 1.1-2.6 0-1.1-.4-2-1.1-2.7s-1.6-1.1-2.7-1.1c-1 0-1.9.4-2.6 1.1-.7.8-1.1 1.7-1.1 2.7s.4 1.9 1.1 2.6 1.6 1.1 2.6 1.1M219.6 147.9H190v-4.1q0-6.9-3.3-10.5c-3.3-3.6-5.6-3.6-10.2-3.6h-14.9v18.2h-28.3v-18.2h-6.8v18.2H96.8v-18.2H81.9q-6.9 0-10.2 3.6c-3.3 3.6-3.3 5.9-3.3 10.5v10.5h21.5c0 2.1-.2 3.8-.6 5s-1.2 2.1-2.3 2.7-2.7.9-4.7.9h-9.1v6.4h10.2q7.2 0 10.2-3.9c2-2.6 3.1-6.3 3.2-11.2h129.8v-39.8h-6.9v33.5zm-129.8 0H75.2v-3.5c0-2.8.6-4.9 1.9-6.3s3.3-2.1 6.1-2.1h6.5zm93.2 0h-14.6V136h6.5c2.8 0 4.8.7 6.1 2.1s1.9 3.5 1.9 6.3v3.5zM235.9 114.4h6.9v39.8h-6.9zM273.8 116.8c-.7.7-1.1 1.6-1.1 2.7 0 1 .4 1.9 1.1 2.6.7.8 1.6 1.1 2.6 1.1s1.9-.4 2.7-1.1c.7-.8 1.1-1.6 1.1-2.6s-.4-1.9-1.1-2.7c-.7-.7-1.6-1.1-2.7-1.1-1 0-1.9.4-2.6 1.1M284.2 116.2c-.6.4-1.1.8-1.4 1.4-.4.6-.5 1.2-.5 1.9s.2 1.3.5 1.9c.4.6.8 1.1 1.4 1.4s1.2.5 1.9.5c1 0 1.9-.4 2.6-1.1.8-.8 1.1-1.6 1.1-2.6s-.4-1.9-1.1-2.7c-.7-.7-1.6-1.1-2.6-1.1-.7-.1-1.3.1-1.9.4M327.2 123.3c1 0 1.9-.4 2.7-1.1.7-.7 1.1-1.6 1.1-2.6 0-1.1-.4-2-1.1-2.7s-1.6-1.1-2.7-1.1c-1 0-1.9.4-2.6 1.1-.7.8-1.1 1.7-1.1 2.7s.4 1.9 1.1 2.6 1.6 1.1 2.6 1.1M368.4 158.6c-.7 0-1.3.2-1.9.5-.6.4-1.1.8-1.4 1.4-.4.6-.5 1.2-.5 1.9 0 .6.2 1.2.5 1.8.4.6.8 1 1.4 1.4.6.3 1.2.5 1.9.5s1.3-.2 1.9-.5 1.1-.8 1.4-1.4.5-1.2.5-1.8c0-1.1-.4-2-1.1-2.8-.8-.7-1.7-1-2.7-1M369.4 129.6h-6.8v18.2h-32.1v-18.2h-6.8v18.2h-51.2v-3.5c0-2.8.6-4.9 1.9-6.3s3.3-2.1 6.1-2.1h6.6v8.9h6.9v-15.3h-14.9q-6.9 0-10.2 3.6c-3.3 3.6-3.3 5.9-3.3 10.5v10.5h103.7v-24.5zM358.7 158.6c-1 0-1.9.4-2.6 1.1-.7.8-1.1 1.7-1.1 2.8 0 .6.2 1.2.5 1.8s.8 1 1.4 1.4c.6.3 1.2.5 1.9.5 1 0 1.9-.4 2.7-1.1.7-.7 1.1-1.6 1.1-2.6 0-1.1-.4-2-1.1-2.8-.9-.8-1.7-1.1-2.8-1.1M494.5 147.9h-30.6v-4.1q0-6.9-3.3-10.5t-10.2-3.6h-14.9v18.2h-28.6v-4.5c0-9.1-4.4-13.7-13.3-13.7h-11.7v6.4H392c2.8 0 4.8.6 6.1 1.9s1.9 3.2 1.9 5.8v4.1h-23.1v6.4h124.5v-39.8h-6.9zm-37.6 0h-14.6V136h6.5c2.8 0 4.9.7 6.1 2.1 1.3 1.4 1.9 3.5 1.9 6.3v3.5zM510.9 114.4h6.9v39.8h-6.9zM27.9 55.3c.6.3 1.2.5 1.9.5 1 0 1.9-.4 2.6-1.1.8-.7 1.1-1.6 1.1-2.6s-.4-1.9-1.1-2.7c-.7-.7-1.6-1.1-2.6-1.1-.7 0-1.3.2-1.9.5-.6.4-1.1.8-1.4 1.4-.4.6-.5 1.2-.5 1.9s.2 1.3.5 1.9c.3.5.8 1 1.4 1.3M20.1 55.9c1 0 1.9-.4 2.7-1.1.7-.7 1.1-1.6 1.1-2.6s-.4-1.9-1.1-2.7c-.7-.7-1.6-1.1-2.7-1.1-1 0-1.9.4-2.6 1.1-.8.7-1.1 1.6-1.1 2.7 0 1 .4 1.9 1.1 2.6s1.6 1.1 2.6 1.1M90.6 55.9c1 0 1.9-.4 2.7-1.1.7-.7 1.1-1.6 1.1-2.6s-.4-1.9-1.1-2.7c-.7-.7-1.6-1.1-2.7-1.1-1 0-1.9.4-2.6 1.1s-1.1 1.6-1.1 2.7c0 1 .4 1.9 1.1 2.6.8.7 1.6 1.1 2.6 1.1M98.4 55.3c.6.3 1.2.5 1.9.5 1 0 1.9-.4 2.6-1.1s1.1-1.6 1.1-2.6-.4-1.9-1.1-2.7c-.7-.7-1.6-1.1-2.6-1.1-.7 0-1.3.2-1.9.5-.6.4-1.1.8-1.4 1.4-.4.6-.5 1.2-.5 1.9s.2 1.3.5 1.9c.3.5.8 1 1.4 1.3M243.2 55.9c1 0 1.9-.4 2.7-1.1.7-.7 1.1-1.6 1.1-2.6 0-1.1-.4-2-1.1-2.7s-1.6-1.1-2.7-1.1c-1 0-1.9.4-2.6 1.1-.7.8-1.1 1.7-1.1 2.7s.4 1.9 1.1 2.6 1.6 1.1 2.6 1.1" class="st0"/><path d="M313.9 86.9V76.4q0-6.9-3.3-10.5t-10.2-3.6h-14.9v18.2h-38.89999999999999V62.3h-6.8v18.2h-36.9V76c0-9.1-4.4-13.7-13.3-13.7h-27.1V47h-6.9v33.4h-46.5V62.2h-15q-6.9 0-10.2 3.6c-3.3 3.6-3.3 5.9-3.3 10.5v4.1H16.1V77c0-2.8.6-4.9 1.9-6.3s3.3-2.1 6.1-2.1h6.6v8.9h6.9V62.2H22.8q-6.9 0-10.2 3.6c-3.3 3.6-3.3 5.9-3.3 10.5v10.5h267.4zm-21.5-18.3h6.5c2.8 0 4.9.7 6.1 2.1 1.3 1.4 1.9 3.5 1.9 6.3v3.5h-14.6V68.6zM102.1 80.5H87.5V77c0-2.8.6-4.9 1.9-6.3s3.3-2.1 6.1-2.1h6.5zm93.9 0h-33.5V68.7H188c2.8 0 4.8.6 6.1 1.9s1.9 3.2 1.9 5.8zM353.8 55.3c.6.3 1.2.5 1.9.5 1 0 1.9-.4 2.6-1.1s1.1-1.6 1.1-2.6-.4-1.9-1.1-2.7c-.7-.7-1.6-1.1-2.6-1.1-.7 0-1.3.2-1.9.5-.6.4-1.1.8-1.4 1.4-.4.6-.5 1.2-.5 1.9s.2 1.3.5 1.9c.3.5.8 1 1.4 1.3M368.1 86.9h53.3V62.3h-6.8v18.2H342V77c0-2.8.6-4.9 1.9-6.3s3.3-2.1 6.1-2.1h6.5v8.9h6.9V62.2h-14.9q-6.9 0-10.2 3.6c-3.3 3.6-3.3 5.9-3.3 10.5v10.5zM346 55.9c1 0 1.9-.4 2.7-1.1.7-.7 1.1-1.6 1.1-2.6s-.4-1.9-1.1-2.7c-.7-.7-1.6-1.1-2.7-1.1-1 0-1.9.4-2.6 1.1-.8.7-1.1 1.6-1.1 2.7 0 1 .4 1.9 1.1 2.6.8.7 1.6 1.1 2.6 1.1M418 55.9c1 0 1.9-.4 2.7-1.1.7-.7 1.1-1.6 1.1-2.6 0-1.1-.4-2-1.1-2.7s-1.6-1.1-2.7-1.1c-1 0-1.9.4-2.6 1.1-.7.8-1.1 1.7-1.1 2.7s.4 1.9 1.1 2.6 1.6 1.1 2.6 1.1M489.3 62.2h-14.9v18.2h-31.700000000000003c-1.7 0-2.9-.4-3.7-1.2s-1.2-2.1-1.2-3.8V47h-6.9v27.7c0 2.9.4 5.2 1.1 7 .8 1.8 2 3.1 3.8 3.9s4.2 1.3 7.2 1.3h59.800000000000004V76.4q0-6.9-3.3-10.5c-2.2-2.5-5.6-3.7-10.2-3.7m6.6 18.3h-14.6V68.7h6.5c2.8 0 4.8.7 6.1 2.1s1.9 3.5 1.9 6.3zM510.9 47h6.9v39.8h-6.9zM514 41v-3c0-.8.2-1.3.5-1.7s.8-.5 1.5-.5h3.2V33h-3c-1.8 0-3.2.4-4 1.1-.8.8-1.2 2-1.2 3.8v5.7h8.9V41z" class="st0"/></svg>