<svg xmlns="http://www.w3.org/2000/svg" width="61" height="76" fill="none"><g clip-path="url(#a)"><path fill="url(#b)" fill-rule="evenodd" d="M60.992 21.023c-.005-3.653-.981-7.024-3.114-10.026-1.904-2.681-4.205-4.987-6.763-7.047C47.856 1.32 44.15 0 39.954 0c-9.08.008-18.16.006-27.238.004L5.906.002c-.704 0-1.4.058-2.065.311C1.382 1.248 0 3.278 0 5.973v64.05c.002 2.021.736 3.692 2.399 4.907 1.087.792 2.313 1.074 3.647 1.07 4.59-.01 9.18-.008 13.768-.006l5.734.002h29.23c.795 0 1.59-.019 2.348-.303 2.48-.927 3.868-2.946 3.868-5.689v-.013c.004-16.322.008-32.645-.002-48.968m-3.837 49.064c0 1.074-.447 1.733-1.357 2.042-.212.073-.428.077-.647.077H5.853c-1.262 0-2.012-.786-2.012-2.109q-.004-8.1-.002-16.2V27.36q-.002-10.59 0-21.18l-.003-.21c-.006-.334-.013-.672.13-.986.374-.827 1.028-1.198 1.935-1.196q4.524.005 9.052.003l3.622-.001q3.046.001 6.092.01c4.86.012 9.72.024 14.58-.033 4.011-.048 7.426 1.234 10.396 3.885 1.946 1.74 3.758 3.59 5.26 5.725.591.844 1.049 1.76 1.406 2.726q.014.035.032.071c.044.092.09.187-.011.267-.078.063-.163.01-.243-.04l-.052-.032c-1.565-.86-3.251-1.203-5.03-1.182-.833.01-1.666.009-2.499.007-.757-.001-1.514-.003-2.271.005-.38.004-.518-.11-.514-.502q.03-2.543 0-5.085c-.008-1.062-.521-1.721-1.459-1.955-1.114-.278-2.3.532-2.317 1.679a306 306 0 0 0-.002 7.932c.012.958.856 1.688 1.883 1.704.905.015 1.81.012 2.716.01h.002l1.119-.003h1.44q1.08-.003 2.16.002c2.62.014 4.64 1.403 5.58 3.833.227.59.279 1.203.279 1.831q.008 9.207.02 18.414v.004l.013 12.281q.005 7.372-.002 14.743zM27 29a2 2 0 0 0-2 2v24a2 2 0 0 0 4 0V31a2 2 0 0 0-2-2m-9.414 12.586A2 2 0 0 1 21 43v12a2 2 0 0 1-4 0V43a2 2 0 0 1 .586-1.414M35 35a2 2 0 0 0-2 2v18a2 2 0 0 0 4 0V37a2 2 0 0 0-2-2m6.586 13.586A2 2 0 0 1 45 50v5a2 2 0 0 1-4 0v-5a2 2 0 0 1 .586-1.414" clip-rule="evenodd"/></g><defs><linearGradient id="b" x1="30.499" x2="30.499" y1="0" y2="76" gradientUnits="userSpaceOnUse"><stop stop-color="#76C045"/><stop offset="1" stop-color="#017366"/></linearGradient><clipPath id="a"><path fill="#fff" d="M0 0h61v76H0z"/></clipPath></defs></svg>