<svg xmlns="http://www.w3.org/2000/svg" width="79" height="79" fill="none"><path fill="url(#a)" d="M74.063 64.188h-2.47v-41.97a2.47 2.47 0 0 0-2.468-2.468H56.781v-7.406a2.47 2.47 0 0 0-2.468-2.469H24.687a2.47 2.47 0 0 0-2.468 2.469v17.281H9.875a2.47 2.47 0 0 0-2.469 2.469v32.094H4.938a2.469 2.469 0 1 0 0 4.937h69.125a2.469 2.469 0 1 0 0-4.937m-61.72-29.626h12.345a2.47 2.47 0 0 0 2.468-2.468V14.813h24.688v7.406a2.47 2.47 0 0 0 2.468 2.468h12.344v39.5h-19.75V51.845a2.47 2.47 0 0 0-2.468-2.469h-9.876a2.47 2.47 0 0 0-2.468 2.469v12.343h-19.75zM41.97 64.189H37.03v-9.876h4.938zm-7.407-41.97a2.47 2.47 0 0 1 2.47-2.468h4.937a2.469 2.469 0 0 1 0 4.938H37.03a2.47 2.47 0 0 1-2.468-2.47m0 9.876a2.47 2.47 0 0 1 2.47-2.469h4.937a2.469 2.469 0 0 1 0 4.938H37.03a2.47 2.47 0 0 1-2.468-2.47m17.282 0a2.47 2.47 0 0 1 2.468-2.469h4.938a2.469 2.469 0 1 1 0 4.938h-4.937a2.47 2.47 0 0 1-2.47-2.47m-24.688 9.875a2.47 2.47 0 0 1-2.468 2.468H19.75a2.469 2.469 0 1 1 0-4.937h4.938a2.47 2.47 0 0 1 2.468 2.469m0 9.875a2.47 2.47 0 0 1-2.468 2.468H19.75a2.469 2.469 0 1 1 0-4.937h4.938a2.47 2.47 0 0 1 2.468 2.469m7.407-9.875A2.47 2.47 0 0 1 37.03 39.5h4.938a2.469 2.469 0 0 1 0 4.938H37.03a2.47 2.47 0 0 1-2.468-2.47m17.28 0a2.47 2.47 0 0 1 2.47-2.469h4.937a2.469 2.469 0 1 1 0 4.938h-4.937a2.47 2.47 0 0 1-2.47-2.47m0 9.875a2.47 2.47 0 0 1 2.47-2.469h4.937a2.469 2.469 0 1 1 0 4.938h-4.937a2.47 2.47 0 0 1-2.47-2.47"/><defs><linearGradient id="a" x1="39.5" x2="39.494" y1="9.875" y2="75.27" gradientUnits="userSpaceOnUse"><stop stop-color="#76C045"/><stop offset="1" stop-color="#017366"/></linearGradient></defs></svg>