<svg xmlns="http://www.w3.org/2000/svg" width="100" height="100" fill="none"><path fill="url(#a)" d="M81.571 66.6h-9.714V49.002a21.8 21.8 0 0 0 8.804 6.426 2.46 2.46 0 0 0 1.84-.038 2.41 2.41 0 0 0 1.284-1.301 2.37 2.37 0 0 0-.007-1.819 2.41 2.41 0 0 0-1.296-1.291 16.9 16.9 0 0 1-7.733-6.177 16.6 16.6 0 0 1-2.892-9.402c0-.636-.256-1.247-.711-1.697A2.44 2.44 0 0 0 69.429 33c-.645 0-1.262.253-1.718.703A2.39 2.39 0 0 0 67 35.4a16.7 16.7 0 0 1-4.98 11.88A17.1 17.1 0 0 1 50 52.2c-4.509 0-8.833-1.77-12.02-4.92A16.7 16.7 0 0 1 33 35.4c0-.636-.256-1.247-.711-1.697A2.44 2.44 0 0 0 30.57 33c-.644 0-1.261.253-1.717.703a2.39 2.39 0 0 0-.711 1.697c.01 3.35-.997 6.625-2.892 9.402a16.9 16.9 0 0 1-7.733 6.177 2.41 2.41 0 0 0-1.296 1.291 2.37 2.37 0 0 0-.007 1.819c.239.583.7 1.05 1.285 1.301.584.25 1.245.264 1.84.038a21.8 21.8 0 0 0 8.803-6.426V66.6h-9.714c-.644 0-1.262.253-1.718.703A2.39 2.39 0 0 0 16 69c0 .636.256 1.247.711 1.697.456.45 1.074.703 1.718.703h9.714v7.2c0 .637.256 1.247.711 1.697.456.45 1.073.703 1.717.703s1.262-.253 1.718-.703S33 79.237 33 78.6v-7.2h34v7.2c0 .637.256 1.247.711 1.697.456.45 1.073.703 1.718.703.644 0 1.261-.253 1.717-.703.455-.45.711-1.06.711-1.697v-7.2h9.714c.645 0 1.262-.253 1.718-.703S84 69.637 84 69c0-.636-.256-1.247-.711-1.697a2.44 2.44 0 0 0-1.718-.703M54.857 56.46V66.6h-9.714V56.46c3.197.72 6.517.72 9.714 0M33 48.96a21.96 21.96 0 0 0 7.286 5.781V66.6H33zM59.714 66.6V54.744A21.96 21.96 0 0 0 67 48.963V66.6z"/><defs><linearGradient id="a" x1="50" x2="50" y1="33" y2="80.808" gradientUnits="userSpaceOnUse"><stop stop-color="#76C045"/><stop offset="1" stop-color="#017366"/></linearGradient></defs></svg>