<svg xmlns="http://www.w3.org/2000/svg" width="96" height="96" fill="none"><g clip-path="url(#a)"><path fill="url(#b)" d="M54 59.13a25.5 25.5 0 1 0-26.963 0c-7.743 2.535-14.71 7.271-20.313 13.939a2.999 2.999 0 1 0 4.59 3.862c7.53-8.985 17.902-13.93 29.186-13.93S62.156 67.945 69.7 76.93A3.002 3.002 0 0 0 74.3 73.07c-5.607-6.668-12.574-11.404-20.3-13.939M21 37.5A19.5 19.5 0 1 1 40.5 57 19.52 19.52 0 0 1 21 37.5m73.594 16.151-1.748-1.008a8.9 8.9 0 0 0 0-3.285l1.748-1.01a3.002 3.002 0 0 0-.723-5.496 3 3 0 0 0-2.277.3l-1.752 1.012A9 9 0 0 0 87 42.518V40.5a3 3 0 0 0-6 0v2.018a9 9 0 0 0-2.843 1.646l-1.75-1.013a3 3 0 0 0-4.1 1.1 3 3 0 0 0 1.1 4.098l1.747 1.009a8.9 8.9 0 0 0 0 3.285l-1.748 1.008a3 3 0 1 0 3 5.198l1.751-1.013A9 9 0 0 0 81 59.483V61.5a3 3 0 1 0 6 0v-2.017a9 9 0 0 0 2.842-1.647l1.752 1.013a3 3 0 1 0 3-5.197M81 51.001A3 3 0 1 1 86.999 51a3 3 0 0 1-6 0"/></g><defs><linearGradient id="b" x1="51.038" x2="51.032" y1="11.985" y2="84.894" gradientUnits="userSpaceOnUse"><stop stop-color="#76C045"/><stop offset="1" stop-color="#017366"/></linearGradient><clipPath id="a"><path fill="#fff" d="M0 0h96v96H0z"/></clipPath></defs></svg>