<svg xmlns="http://www.w3.org/2000/svg" width="82" height="78" fill="none"><path fill="url(#a)" fill-rule="evenodd" d="M63.41 4.585a14.006 14.006 0 0 0-12.311 20.684l12.31 17.587L75.72 25.269A14.005 14.005 0 0 0 63.41 4.585m-9.222-2.137A18.59 18.59 0 0 1 79.676 27.59q-.058.106-.128.205l-14.26 20.373a2.293 2.293 0 0 1-3.756 0L47.27 27.795a2 2 0 0 1-.128-.205 18.59 18.59 0 0 1 7.045-25.142m9.221 13.018a2.865 2.865 0 0 1 2.866 2.866v.038a2.865 2.865 0 1 1-5.731 0v-.038a2.865 2.865 0 0 1 2.865-2.866M26.74 7.89c.39 0 .755.097 1.076.268l6.061 3.03a2.292 2.292 0 0 1-2.05 4.1l-2.794-1.396v47.842l19.862 9.931V55.002a2.292 2.292 0 0 1 4.584 0v16.663l19.863-9.93v-6.733a2.292 2.292 0 0 1 4.585 0v8.149c0 .868-.491 1.662-1.268 2.05L52.252 77.404a2.3 2.3 0 0 1-1.066.263c-.386 0-.75-.096-1.069-.264L26.74 65.713 3.318 77.426A2.292 2.292 0 0 1 0 75.375V22.405c0-.868.49-1.662 1.267-2.05l24.418-12.21a2.3 2.3 0 0 1 1.055-.256M4.586 23.823l19.862-9.931v47.842L4.585 71.665z" clip-rule="evenodd"/><defs><linearGradient id="a" x1="41" x2="41" y1="0" y2="77.667" gradientUnits="userSpaceOnUse"><stop stop-color="#76C045"/><stop offset="1" stop-color="#017366"/></linearGradient></defs></svg>